<?xml version="1.0" encoding="utf-8"?>
<!-- Generator: Adobe Illustrator 21.0.0, SVG Export Plug-In . SVG Version: 6.00 Build 0)  -->
<svg version="1.1" id="레이어_1" xmlns="http://www.w3.org/2000/svg" xmlns:xlink="http://www.w3.org/1999/xlink" x="0px"
	 y="0px" viewBox="0 0 1436 1436" style="enable-background:new 0 0 1436 1436;" xml:space="preserve">
<style type="text/css">
	.st0{fill:#343449;}
	.st1{fill:#FEC731;}
	.st2{opacity:0.3;fill:#FF7E1B;enable-background:new    ;}
	.st3{fill:none;stroke:#FFFFFF;stroke-width:20;stroke-linecap:round;stroke-linejoin:round;}
	.st4{fill:none;stroke:#FFFFFF;stroke-width:20;}
</style>
<circle id="Ellipse_214" class="st0" cx="718" cy="718" r="718"/>
<g id="Group_2166" transform="translate(39.001 -26.26)">
	<g id="Group_2167" transform="translate(-27)">
		<path id="Path_1098" class="st1" d="M208,934.6c17.9-113.4,109.9-244.7,244.7-374s294.4-143.2,294.4-143.2s21.2,229.2,44.1,224.6
			s25.5-244.5,25.5-244.5s99.4-17.2,194.9-17.2s187.1,17.2,187.1,17.2s32.4,244.1-63.1,388.3C1045.8,921.5,981.7,916.6,870,934.6
			s-424.6-1.9-461.3-11.1S208,934.6,208,934.6z"/>
		<path id="Intersection_20" class="st2" d="M452.7,560.6c134.8-129.3,294.4-143.2,294.4-143.2s16.9,182.2,36.8,218.4
			c-4.4-8-14.1-13.6-21.8-17.9c-8.3-4.7-15-9-20.3-17.4c-4.8-7.5-7.7-16.1-10.3-24.6c-3.2-10.5-6.1-21.1-8.7-31.7
			c-1.7-6.9-1.6-22.7-9.6-25.5c-2.4-0.9-5.1-0.3-7.7,0.3c-31.2,7.4-59.1,22.5-87.6,36.7c-77.8,38.8-153.8,79.6-212.7,145.1
			c-50.5,56.3-91.1,121.9-133.8,184.1c-4.4,6.4-24.6,45.4-31.5,46.1c-19.3,2.1-32.1,3.7-32.1,3.7
			C225.9,821.2,317.9,689.9,452.7,560.6z M816.8,397.5c0,0,99.4-17.2,194.9-17.2c65.2,0,128.6,8,162.2,13.1
			c-7.2,11.5-16.9,23.6-29.1,32.3c-31.2,22.1-130.1,36.4-218.6,37.7c-40.4,0.6-79.6,13.5-112.6,36.9
			C816.3,446.3,816.8,397.5,816.8,397.5z"/>
	</g>
	<g id="Group_2164" transform="translate(352.061 224)">
		<path id="Path_1090" class="st3" d="M-85.7,756c-10.4-35.1-57.3-59.9-85.9-26c-19.2,22.7-28.3,58.5-25.3,87.8
			c1.2,12.5,5.5,25,13.8,34.6c14.4,16.7,38.9,21.7,60.6,18.1c24.1-4,47.2-16.4,67.2-29.9c34.4-23.1,57-66.6,72-103.9
			c18.5-46.1,23.6-97.8,15.3-146.7c-1.2-6.9-2.6-13.7-4.3-20.5c-1.5-6.2-4.9-17.4-12.7-18.4c-8-1-9.4,9.1-11.1,14.9
			c-5.4,18.9-9.9,38-13.3,57.4c-14.9,84.3-8.3,171.2-1.5,256c0.1,1.8,0.3,3.7,0.5,5.5c3.9-16.6,8.8-33,14.2-49.1
			c8.7-25.7,19-58.6,39.6-77.5c4.8-4.4,11.1-7.6,17.6-7.4c7.8,0.2,14.7,5.1,19.8,10.9C90,772.1,95,785.6,97,799.3
			c2.2,15.3,0.5,30.6-0.5,45.9c-0.6,9.5-2.9,25.4,6.4,31.8c20.8,14.3,113.2-52.1,119.7-65.1s5.2-35.1-28.6-37.7
			s-46.8,29.9-45.5,46.8s14.3,53.4,59.9,56c25.5,1.5,48.8-22.4,64.3-39.7c17.9-20,41.7-47.3,42.8-75.4c0.1-2.9-0.1-6.1-2.1-8.3
			c-3.5-3.8-9.2,0.4-12.6,2.4c-20.8,11.7,31.2,59.2,39,93c7.8,33.8-28.7,39.7-45.7,20.2c-18.7-21.5,18.9-25.4,30.9-29.9
			c9.2-3.5,14.9-10.3,21.9-16.8c14.5-13.5,27.8-28.4,39.9-44.1c29.2-37.8,48.4-78,48.7-126.7c0.1-20.8-4.3-39.6-9-59.6
			c-2.6-11-6.7-29.8-21.8-28.7c-18.2,1.3-18.2,85.9-18.2,118.4c0,0,0,195.2,0,195.2c6.2-18.2,13.4-36.1,21.3-53.6
			c4.7-10.4,29.7-70.4,47.3-48.6c2.7,3.4,4.1,7.7,5.3,11.9c6.2,22,8.8,44.9,8,67.8c-0.5,13.5,5,18.9,17.5,12.6
			c20.3-10.1,38.5-27.5,46.9-49.2c4.4-11.5,13.1-58.1-5.6-61.8c-13-2.6-15.6,11.7-13,46.8s10.4,89.8,41.6,65.1S626,765.1,612.9,756
			s-40.3,9.1-14.3,20.8s24.7,7.2,32.5,35.1s1.3,60.5,35.1,57.3c20.8-2,37.4-14.9,51.4-29.5c7-7.3,14.3-14.5,21.4-21.9
			c5.9-6.2,11.4-13,13.8-21.2c6.5-22.5-17.1-32.9-36-32.5c-23.7,0.5-29.4,29.3-24.1,47.8c12.9,45.3,64.4,71.8,106.9,46.7
			c25.7-15.2,37.6-47.4,45.3-74.8c10.8-38.6,6.8-78.4-5.4-116.1c-10.2-31.4-29.9-58.4-60-73.1c-16-7.8-34.1-11.9-51.7-9.5
			c-49.5,6.9-73.4,66.2-46.9,107c18.2,28,58.7,29.3,74.4,12.4c17.1-18.6,21.1-60.4-11.7-65.4c-15.1-2.3-22.6,7.4-31.5,17.2"/>
		<path id="Path_1091" class="st4" d="M529.6,651.4c9.2,1.8,12.5,11.3,10.1,23.8s-10.3,18.6-19.5,16.8s-16.3-10.9-13.9-23.3
			C508.7,656.3,520.4,649.6,529.6,651.4z"/>
	</g>
</g>
</svg>
